<?xml version="1.0" encoding="utf-8"?>
<!-- Generator: Adobe Illustrator 17.0.0, SVG Export Plug-In . SVG Version: 6.00 Build 0)  -->
<!DOCTYPE svg PUBLIC "-//W3C//DTD SVG 1.1//EN" "http://www.w3.org/Graphics/SVG/1.1/DTD/svg11.dtd">
<svg version="1.1" id="Ebene_1" xmlns="http://www.w3.org/2000/svg" xmlns:xlink="http://www.w3.org/1999/xlink" x="0px" y="0px"
	 width="77.875px" height="26px" viewBox="0 0 77.875 26" enable-background="new 0 0 77.875 26" xml:space="preserve">
<title>Bitmap</title>
<desc>Created with Sketch.</desc>
<path d="M33.189,16.023h-2.882l-0.106-0.328l3.014-4.395h0.386v4.344h0.844v0.378h-0.844v1.475h-0.412V16.023z M33.189,15.644
	v-3.613l-2.488,3.613H33.189z"/>
<path fill="none" d="M60.851,15.129c0,1.187,0.765,1.936,1.557,1.936c0.8,0,1.45-0.686,1.45-1.936v-0.059
	c0-1.233-0.667-1.952-1.45-1.952c-0.792,0-1.557,0.756-1.557,1.932V15.129z"/>
<path fill="none" d="M54.604,15.98v0.037c0,0.644,0.489,1.054,1.117,1.054c0.782,0,1.421-0.569,1.421-1.318v-0.651
	c-0.334-0.106-0.746-0.192-1.266-0.192C55.05,14.911,54.604,15.35,54.604,15.98z"/>
<path fill="none" d="M19.579,9.713c-0.518,0.229-1.262,0.637-2.011,1.081c-2.312,1.368-3.274,2.163-6.074,4.36
	c-1.225,0.962-1.863,1.481-5.091,4.359c-0.067,0.058-0.119,0.151-0.06,0.217c0.085,0.098,0.243,0.203,0.243,0.203
	s0.056,0.11,0.365-0.142c0.221-0.181,3.37-2.901,3.607-3.082c0.235-0.178,1.264-1,1.539-1.203c2.934-2.167,4.99-3.882,8.815-5.859
	C20.705,9.634,20.098,9.485,19.579,9.713z"/>
<path fill="none" d="M11.779,12.392c0.284-0.278,0.559-0.532,0.418-0.4c-0.126,0.12,1.507-1.398,2.191-2.148
	c0.685-0.752-0.054-1.251-0.144-1.308c-0.179-0.114-0.803-0.52-1.279-0.817c-0.402-0.252-0.502-0.609-0.403-0.878
	c0.097-0.27,0.699-0.957,1.134-1.424c0.472-0.506,0.721-0.906,0.673-1.246c-0.042-0.305-0.348-0.401-0.479-0.457
	C13.761,3.66,13.435,3.6,13.172,3.584c-0.832-0.055-2.014,0.169-2.014,0.169c-0.314,0.087-0.41,0.325-0.369,0.584
	c0.042,0.26,0.454,0.261,0.772,0.197c0.299-0.061,1.486-0.185,1.647-0.17c0.147,0.013,0.102,0.159,0.051,0.259
	c-0.053,0.1-0.875,0.92-1.246,1.539c-0.368,0.618-0.483,1.097-0.258,1.608c0.226,0.51,1.46,1.141,1.629,1.234
	c0.274,0.155,0.085,0.437,0.085,0.437s-0.145,0.177-0.262,0.318c-0.129,0.156-0.641,0.783-0.907,1.094
	c-0.244,0.283-0.124,0.133-0.489,0.547c-0.494,0.567-0.751,0.841-1.069,1.257c-0.169,0.223-0.288,0.379-0.159,0.498
	C10.795,13.353,11.495,12.67,11.779,12.392z"/>
<path fill="none" d="M41.066,13.107c-0.757,0-1.343,0.724-1.406,1.787h2.751C42.378,13.937,41.911,13.107,41.066,13.107z"/>
<path fill="none" d="M7.411,10.906l0.008,0.091c0,0-0.006,1.256-0.024,1.486c-0.02,0.231,0.018,0.969,0.029,1.106
	c0.011,0.141,0.028,0.275,0.167,0.514c0.138,0.237,0.388,0.209,0.536,0.132c0.148-0.075,0.126-0.281,0.114-0.425
	c-0.013-0.146-0.004-0.656-0.012-0.767c-0.006-0.111,0.056-2.366,0.051-2.463c-0.001-0.098,0.032-0.072,0.032-0.072
	s0.444-0.136,0.698-0.194c0.253-0.056,0.922-0.134,1.212-0.191c0.29-0.056,0.308-0.196,0.308-0.28c0-0.199-0.036-0.275-0.219-0.371
	C10.128,9.374,9.875,9.362,9.628,9.38c-0.25,0.018-1.197,0.242-1.267,0.254c-0.07,0.011-0.048-0.053-0.048-0.053
	S8.306,9.547,8.308,9.447C8.189,7.143,8.345,4.652,8.372,4.425C8.4,4.2,8.129,4.032,8.024,3.994
	c-0.367-0.09-0.438,0.084-0.466,0.144C7.528,4.197,7.489,4.311,7.442,4.52C7.442,4.523,7.44,4.533,7.44,4.544
	C7.421,4.581,7.409,4.62,7.399,4.655C7.362,4.779,6.639,6.337,5.81,7.706c-0.827,1.369-1.904,2.933-1.904,2.933
	s-0.069,0.139-0.108,0.227c-0.037,0.088-0.082,0.244-0.011,0.431c0.085,0.236,0.173,0.322,0.469,0.534
	c0.3,0.213,0.584,0.065,0.854-0.064c0.93-0.445,2.197-0.88,2.248-0.905C7.412,10.838,7.411,10.906,7.411,10.906z M5.727,10.611
	c-0.474,0.195-0.867,0.293-0.966,0.334c-0.097,0.04-0.048-0.051-0.048-0.051s0.45-0.92,2.72-4.464
	c0.011,1.509,0.035,3.366,0.026,3.43C7.446,9.965,7.357,9.976,7.357,9.976S6.198,10.415,5.727,10.611z"/>
<path fill="none" d="M40.125,21.488c-0.756,0-1.346,0.724-1.407,1.783h2.751C41.434,22.314,40.967,21.488,40.125,21.488z"/>
<path fill="none" d="M70.15,23.457c0-1.122-0.696-1.957-1.548-1.957c-0.872,0-1.528,0.842-1.528,1.949v0.036
	c0,1.124,0.682,1.958,1.537,1.958c0.879,0,1.538-0.841,1.538-1.947L70.15,23.457L70.15,23.457z"/>
<path fill="none" d="M75.74,21.488c-0.756,0-1.346,0.724-1.405,1.783h2.75C77.049,22.314,76.585,21.488,75.74,21.488z"/>
<path fill="none" d="M44.136,25.453c0.783,0,1.422-0.569,1.422-1.32v-0.649c-0.331-0.106-0.746-0.192-1.263-0.192
	c-0.828,0-1.275,0.437-1.275,1.069v0.038C43.019,25.038,43.513,25.453,44.136,25.453z"/>
<path fill="none" d="M52.659,21.488c-0.755,0-1.346,0.724-1.404,1.783h2.75C53.968,22.314,53.503,21.488,52.659,21.488z"/>
<path d="M38.364,15.602c0-1.085-0.886-1.596-1.907-1.692l1.838-2.402v-0.307h-3.357v0.421h2.778l-1.839,2.416l0.08,0.256h0.185
	c1.01,0,1.776,0.441,1.776,1.329v0.027c0,0.842-0.626,1.395-1.389,1.395c-0.668,0-1.144-0.282-1.53-0.737l-0.307,0.306
	c0.423,0.484,1.021,0.835,1.829,0.835c0.993,0,1.844-0.719,1.844-1.809V15.602L38.364,15.602z"/>
<path d="M42.842,15.049c0-1.367-0.693-2.317-1.767-2.317c-1.038,0-1.836,0.956-1.836,2.354v0.037c0,1.449,0.894,2.327,1.957,2.327
	c0.687,0,1.134-0.262,1.538-0.66L42.48,16.51c-0.325,0.326-0.709,0.555-1.256,0.555c-0.798,0-1.512-0.653-1.565-1.803h3.182
	L42.842,15.049L42.842,15.049z M39.66,14.894c0.063-1.063,0.65-1.787,1.406-1.787c0.845,0,1.312,0.83,1.346,1.787H39.66z"/>
<rect x="43.823" y="11.122" width="0.495" height="0.599"/>
<rect x="43.86" y="12.827" width="0.411" height="4.526"/>
<path d="M45.554,12.828v4.526h0.405v-2.768c0-0.873,0.579-1.485,1.334-1.485c0.762,0,1.193,0.528,1.193,1.441v2.811h0.415v-2.928
	c0-1.038-0.592-1.695-1.538-1.695c-0.722,0-1.152,0.397-1.404,0.878v-0.782L45.554,12.828L45.554,12.828z"/>
<path d="M53.296,17.353v-2.927c0-1.036-0.59-1.695-1.537-1.695c-0.723,0-1.154,0.398-1.409,0.878v-2.602h-0.403v6.345h0.403v-2.767
	c0-0.872,0.581-1.485,1.338-1.485c0.763,0,1.195,0.527,1.195,1.441v2.81H53.296L53.296,17.353z"/>
<path d="M55.886,14.543c-1.028,0-1.714,0.56-1.714,1.459v0.032c0,0.898,0.746,1.415,1.511,1.415c0.713,0,1.187-0.377,1.453-0.814
	v0.718h0.404v-2.979c0-0.51-0.151-0.915-0.425-1.168c-0.288-0.3-0.702-0.439-1.218-0.439c-0.528,0-0.969,0.149-1.39,0.352
	l0.157,0.362c0.327-0.186,0.737-0.324,1.206-0.324c0.788,0,1.266,0.429,1.266,1.245v0.324
	C56.775,14.619,56.404,14.543,55.886,14.543z M57.142,15.103v0.651c0,0.749-0.639,1.318-1.421,1.318
	c-0.628,0-1.117-0.411-1.117-1.054v-0.037c0-0.631,0.447-1.07,1.272-1.07C56.396,14.911,56.808,14.997,57.142,15.103z"/>
<rect x="58.786" y="11.008" width="0.414" height="6.345"/>
<path d="M60.473,11.008v6.347h0.404v-0.942c0.308,0.553,0.799,1.036,1.574,1.036c0.921,0,1.837-0.84,1.837-2.336v-0.063
	c0-1.49-0.916-2.318-1.837-2.318c-0.765,0-1.25,0.492-1.574,1.061v-2.786L60.473,11.008L60.473,11.008z M62.408,13.117
	c0.783,0,1.45,0.719,1.45,1.952v0.059c0,1.25-0.65,1.936-1.45,1.936c-0.792,0-1.557-0.749-1.557-1.936v-0.08
	C60.851,13.873,61.616,13.117,62.408,13.117z"/>
<path d="M31.625,25.425c-0.484,0-0.941-0.191-1.373-0.569l-0.253,0.315c0.447,0.405,1.036,0.644,1.6,0.644
	c0.79,0,1.423-0.501,1.423-1.267v-0.01c0-0.687-0.519-0.985-1.301-1.326c-0.66-0.282-1.08-0.495-1.08-0.931v-0.019
	c0-0.429,0.378-0.747,0.922-0.747c0.421,0,0.825,0.166,1.177,0.431l0.237-0.325c-0.36-0.283-0.87-0.495-1.397-0.495
	c-0.79,0-1.354,0.484-1.354,1.181v0.016c0,0.687,0.58,0.969,1.327,1.275c0.668,0.279,1.057,0.518,1.057,0.965v0.018
	C32.609,25.091,32.178,25.425,31.625,25.425z"/>
<path d="M33.971,21.206v4.528h0.404v-2.767c0-0.873,0.58-1.488,1.337-1.488c0.765,0,1.196,0.53,1.196,1.441v2.814h0.412v-2.926
	c0-1.038-0.589-1.697-1.538-1.697c-0.721,0-1.152,0.395-1.407,0.877v-0.782C34.375,21.206,33.971,21.206,33.971,21.206z"/>
<path d="M41.541,24.889c-0.325,0.325-0.713,0.553-1.257,0.553c-0.802,0-1.513-0.649-1.566-1.8h3.181v-0.211
	c0-1.372-0.693-2.321-1.766-2.321c-1.034,0-1.836,0.958-1.836,2.357V23.5c0,1.453,0.897,2.331,1.961,2.331
	c0.683,0,1.134-0.265,1.537-0.66L41.541,24.889z M40.125,21.488c0.842,0,1.309,0.825,1.345,1.783h-2.751
	C38.779,22.211,39.37,21.488,40.125,21.488z"/>
<path d="M44.1,25.831c0.712,0,1.187-0.377,1.452-0.819v0.723h0.405v-2.98c0-0.511-0.149-0.915-0.425-1.17
	c-0.288-0.298-0.703-0.437-1.219-0.437c-0.528,0-0.969,0.149-1.39,0.352l0.161,0.359c0.324-0.184,0.734-0.328,1.202-0.328
	c0.793,0,1.266,0.433,1.266,1.25v0.325C45.19,23,44.823,22.92,44.302,22.92c-1.027,0-1.713,0.565-1.713,1.462v0.034
	C42.588,25.313,43.336,25.831,44.1,25.831z M43.019,24.361c0-0.633,0.448-1.069,1.275-1.069c0.517,0,0.932,0.085,1.263,0.192v0.649
	c0,0.75-0.639,1.32-1.422,1.32c-0.623,0-1.117-0.415-1.117-1.054L43.019,24.361C43.018,24.361,43.019,24.361,43.019,24.361z"/>
<polygon points="49.885,21.206 47.582,23.977 47.582,19.387 47.177,19.387 47.177,25.734 47.582,25.734 47.582,24.511 
	48.471,23.484 49.971,25.734 50.476,25.734 48.753,23.149 50.396,21.206 "/>
<path d="M54.074,24.889c-0.324,0.325-0.712,0.553-1.256,0.553c-0.802,0-1.511-0.649-1.563-1.8h3.181v-0.211
	c0-1.372-0.696-2.321-1.767-2.321c-1.037,0-1.84,0.958-1.84,2.357V23.5c0,1.453,0.899,2.331,1.963,2.331
	c0.686,0,1.133-0.265,1.537-0.66L54.074,24.889z M52.659,21.488c0.844,0,1.309,0.825,1.346,1.783h-2.75
	C51.313,22.211,51.904,21.488,52.659,21.488z"/>
<path d="M55.44,21.206v4.528h0.404v-2.26c0-1.238,0.772-1.89,1.65-1.89h0.038v-0.436c-0.774-0.038-1.399,0.464-1.688,1.133v-1.075
	C55.843,21.206,55.44,21.206,55.44,21.206z"/>
<path d="M61.757,25.425c-0.484,0-0.939-0.191-1.369-0.569l-0.255,0.315c0.447,0.405,1.037,0.644,1.596,0.644
	c0.793,0,1.426-0.501,1.426-1.267v-0.01c0-0.687-0.52-0.985-1.302-1.326c-0.656-0.282-1.081-0.495-1.081-0.931v-0.019
	c0-0.429,0.377-0.747,0.925-0.747c0.42,0,0.826,0.166,1.177,0.431l0.239-0.325c-0.363-0.283-0.872-0.495-1.4-0.495
	c-0.792,0-1.352,0.484-1.352,1.181v0.016c0,0.687,0.58,0.969,1.325,1.275c0.67,0.279,1.055,0.518,1.055,0.965v0.018
	C62.741,25.091,62.31,25.425,61.757,25.425z"/>
<path d="M64.855,19.818h-0.41v1.389h-0.58v0.378h0.58v3.129c0,0.756,0.484,1.08,1.106,1.08c0.218,0,0.414-0.033,0.596-0.123v-0.377
	c-0.192,0.078-0.359,0.116-0.535,0.116c-0.449,0-0.757-0.187-0.757-0.749v-3.076h1.292v-0.378h-1.292L64.855,19.818L64.855,19.818z"
	/>
<path d="M70.581,23.484v-0.036c0-1.316-0.83-2.337-1.969-2.337c-1.133,0-1.968,1.038-1.968,2.346v0.038
	c0,1.315,0.826,2.337,1.959,2.337C69.746,25.831,70.581,24.793,70.581,23.484z M68.612,25.442c-0.855,0-1.537-0.834-1.537-1.958
	v-0.036c0-1.107,0.656-1.949,1.528-1.949c0.852,0,1.548,0.835,1.548,1.957v0.038C70.15,24.601,69.491,25.442,68.612,25.442z"/>
<path d="M72.005,22.281v-1.075h-0.405v4.528h0.405v-2.26c0-1.238,0.772-1.89,1.653-1.89h0.033v-0.436
	C72.919,21.11,72.297,21.612,72.005,22.281z"/>
<path d="M75.751,21.11c-1.038,0-1.839,0.958-1.839,2.357V23.5c0,1.453,0.899,2.331,1.962,2.331c0.687,0,1.134-0.265,1.537-0.66
	l-0.255-0.282c-0.324,0.325-0.713,0.553-1.256,0.553c-0.802,0-1.512-0.649-1.564-1.8h3.181v-0.211
	C77.517,22.06,76.821,21.11,75.751,21.11z M74.336,23.271c0.058-1.059,0.649-1.783,1.405-1.783c0.844,0,1.309,0.825,1.346,1.783
	H74.336z"/>
<path d="M7.458,9.86c0.009-0.063-0.015-1.92-0.026-3.43c-2.269,3.545-2.72,4.464-2.72,4.464s-0.049,0.09,0.048,0.051
	c0.099-0.041,0.492-0.138,0.966-0.334c0.471-0.196,1.631-0.635,1.631-0.635S7.446,9.965,7.458,9.86z"/>
<path d="M0,0v25.832h25.832V0C25.832,0,0,0,0,0z M10.805,12.731c0.319-0.418,0.578-0.694,1.075-1.264
	c0.367-0.416,0.246-0.266,0.492-0.551c0.267-0.313,0.783-0.944,0.912-1.1c0.118-0.142,0.263-0.32,0.263-0.32s0.19-0.284-0.086-0.44
	c-0.169-0.094-1.411-0.728-1.638-1.241c-0.226-0.513-0.111-0.996,0.259-1.617c0.373-0.622,1.2-1.447,1.253-1.548
	c0.053-0.101,0.097-0.247-0.051-0.261c-0.162-0.015-1.355,0.11-1.656,0.171c-0.321,0.064-0.734,0.064-0.777-0.198
	c-0.041-0.26,0.056-0.499,0.371-0.587c0,0,1.189-0.226,2.026-0.17c0.265,0.016,0.592,0.076,0.723,0.131
	c0.132,0.057,0.44,0.153,0.482,0.46c0.048,0.342-0.203,0.745-0.677,1.253c-0.438,0.469-1.044,1.16-1.141,1.432
	c-0.1,0.27,0.001,0.629,0.405,0.883c0.479,0.299,1.106,0.706,1.286,0.822c0.09,0.057,0.833,0.559,0.145,1.316
	c-0.687,0.755-2.33,2.282-2.203,2.161c0.142-0.133-0.135,0.123-0.421,0.402c-0.286,0.28-0.99,0.966-1.203,0.767
	C10.515,13.111,10.636,12.955,10.805,12.731z M4.28,11.901c-0.299-0.214-0.386-0.3-0.472-0.538
	c-0.071-0.188-0.026-0.345,0.011-0.433c0.039-0.088,0.108-0.228,0.108-0.228s1.084-1.573,1.916-2.95
	c0.834-1.377,1.56-2.944,1.598-3.069c0.01-0.035,0.022-0.074,0.041-0.111C7.483,4.56,7.485,4.55,7.486,4.547
	c0.046-0.21,0.087-0.324,0.116-0.384c0.028-0.061,0.1-0.235,0.469-0.145c0.105,0.038,0.378,0.207,0.35,0.433
	C8.393,4.68,8.237,7.186,8.356,9.503C8.353,9.604,8.361,9.638,8.361,9.638S8.339,9.702,8.409,9.691
	C8.48,9.679,9.432,9.454,9.684,9.435c0.248-0.018,0.503-0.005,0.686,0.093c0.185,0.097,0.221,0.173,0.221,0.373
	c0,0.085-0.018,0.226-0.31,0.282c-0.292,0.058-0.964,0.136-1.219,0.193c-0.256,0.058-0.702,0.195-0.702,0.195
	s-0.033-0.026-0.032,0.073c0.005,0.097-0.058,2.366-0.051,2.477c0.008,0.111,0,0.624,0.012,0.771
	c0.013,0.144,0.034,0.352-0.114,0.427c-0.149,0.078-0.4,0.106-0.539-0.133c-0.14-0.24-0.156-0.375-0.168-0.517
	c-0.011-0.138-0.049-0.881-0.03-1.113c0.018-0.232,0.024-1.495,0.024-1.495L7.453,10.97c0,0,0.001-0.068-0.054-0.042
	c-0.051,0.025-1.325,0.463-2.261,0.91C4.867,11.966,4.582,12.115,4.28,11.901z M12.168,15.595c-0.276,0.203-1.311,1.031-1.548,1.21
	c-0.238,0.182-3.406,2.918-3.629,3.1c-0.311,0.254-0.367,0.143-0.367,0.143s-0.158-0.105-0.244-0.204
	c-0.058-0.066-0.006-0.16,0.061-0.218c3.247-2.895,3.888-3.417,5.121-4.385c2.817-2.209,3.784-3.009,6.11-4.385
	c0.753-0.446,1.501-0.857,2.023-1.087c0.522-0.229,1.131-0.079,1.341-0.066C17.187,11.69,15.119,13.416,12.168,15.595z"/>
</svg>
