<?xml version="1.0" encoding="utf-8"?>
<!-- Generator: Adobe Illustrator 17.0.0, SVG Export Plug-In . SVG Version: 6.00 Build 0)  -->
<!DOCTYPE svg PUBLIC "-//W3C//DTD SVG 1.1//EN" "http://www.w3.org/Graphics/SVG/1.1/DTD/svg11.dtd">
<svg version="1.1" id="Ebene_1" xmlns="http://www.w3.org/2000/svg" xmlns:xlink="http://www.w3.org/1999/xlink" x="0px" y="0px"
	 width="210.306px" height="26px" viewBox="0 0 210.306 26" enable-background="new 0 0 210.306 26" xml:space="preserve">
<g>
	<path d="M202.277,15.773c-0.115-5.192-0.23-10.359-0.346-15.568c2.857,0,5.574,0,8.34,0c0.012,0.192,0.033,0.377,0.033,0.563
		c0.002,7.662,0.003,15.324,0.001,22.986c0,0.949-0.31,1.241-1.255,1.239c-2.07-0.006-4.141-0.028-6.21,0.011
		c-0.604,0.011-0.912-0.17-1.186-0.721c-2.469-4.969-4.973-9.921-7.468-14.878c-0.058-0.116-0.132-0.224-0.285-0.327
		c0.484,5.268,0.606,10.539,0.46,15.879c-0.215,0.012-0.419,0.034-0.624,0.034c-2.419,0.002-4.837-0.009-7.256,0.008
		c-0.42,0.003-0.567-0.1-0.566-0.547c0.014-7.739,0.011-15.479,0.015-23.218c0-0.745,0.311-1.062,1.058-1.065
		c2.322-0.008,4.644,0.008,6.965-0.013c0.396-0.004,0.522,0.199,0.67,0.493c2.495,4.955,4.998,9.907,7.5,14.859
		C202.168,15.593,202.22,15.675,202.277,15.773z"/>
	<path d="M19.382,12.51c1.658,0.326,3.139,0.966,4.339,2.186c2.732,2.78,2.074,7.169-1.386,9.202
		c-1.157,0.68-2.406,1.048-3.752,1.048c-5.764,0.002-11.528,0.002-17.293,0c-0.929,0-1.289-0.37-1.289-1.309
		C0,16.248,0,8.859,0.002,1.47c0-0.888,0.359-1.322,1.172-1.322c5.88-0.003,11.761-0.041,17.639,0.039
		c3.004,0.041,5.472,2.55,5.754,5.595c0.28,3.018-1.737,5.89-4.629,6.591C19.753,12.419,19.568,12.464,19.382,12.51z M9.658,22.732
		c1.082,0,2.122-0.019,3.162,0.005c0.974,0.022,1.744-0.364,2.29-1.138c1.337-1.895,1.411-3.932,0.49-6.001
		c-0.573-1.289-1.571-2.022-3.066-1.947c-0.811,0.041-1.625,0.005-2.438,0.009c-0.146,0.001-0.293,0.032-0.437,0.05
		C9.658,16.724,9.658,19.695,9.658,22.732z M9.688,2.399C9.664,2.483,9.624,2.555,9.624,2.627C9.62,5.431,9.624,8.235,9.613,11.038
		c-0.001,0.366,0.191,0.402,0.477,0.399c0.831-0.007,1.663-0.011,2.494,0.002c0.782,0.013,1.425-0.274,1.971-0.822
		c1.786-1.791,1.832-5.609,0.036-7.388c-0.378-0.375-0.926-0.741-1.429-0.793C12.02,2.319,10.857,2.399,9.688,2.399z"/>
	<path d="M97.405,25.508c-2.115,0.064-4.205-0.085-6.279-0.55c-3.396-0.762-5.44-2.848-6.075-6.226
		c-0.779-4.145-0.818-8.308,0.061-12.455c0.442-2.086,1.394-3.849,3.242-5.023c1.303-0.829,2.783-1.155,4.278-1.375
		c3.725-0.55,7.438-0.517,11.119,0.362c3.126,0.747,4.991,2.733,5.69,5.834c0.924,4.098,0.902,8.225,0.167,12.338
		c-0.712,3.988-2.889,6.058-7.01,6.713c-1.711,0.272-3.452,0.356-5.18,0.525C97.413,25.603,97.409,25.556,97.405,25.508z
		 M100.318,12.51c-0.005,0-0.011,0-0.016,0c0-2.397,0.031-4.795-0.012-7.191c-0.026-1.442-0.807-2.135-2.241-2.139
		c-0.522-0.001-1.046,0.03-1.566-0.003c-1.663-0.107-2.322,0.932-2.336,2.297c-0.041,3.829-0.057,7.658-0.056,11.487
		c0.001,1.099,0.025,2.206,0.169,3.293c0.148,1.12,0.762,1.534,1.884,1.515c0.773-0.013,1.547-0.004,2.321,0.004
		c0.855,0.009,1.348-0.298,1.621-1.117c0.132-0.397,0.218-0.828,0.221-1.245C100.329,17.111,100.318,14.811,100.318,12.51z"/>
	<path d="M68.83,25.547c-2.176,0.076-4.326-0.09-6.446-0.619c-2.98-0.744-4.944-2.571-5.615-5.558
		c-1.014-4.515-1.038-9.066,0.048-13.581c0.719-2.989,2.65-4.826,5.649-5.511c4.313-0.985,8.634-0.983,12.937,0.032
		c3.077,0.725,4.9,2.739,5.592,5.784c0.967,4.252,0.908,8.527,0.098,12.787c-0.667,3.511-2.891,5.582-6.728,6.246
		c-1.82,0.315-3.681,0.392-5.523,0.577C68.839,25.651,68.834,25.599,68.83,25.547z M71.886,12.552c0.014,0,0.028,0,0.042,0
		c0-1.199,0.008-2.398-0.002-3.597c-0.011-1.199-0.016-2.398-0.068-3.596c-0.061-1.421-0.793-2.119-2.193-2.146
		c-0.58-0.011-1.161-0.01-1.741,0.001c-1.395,0.025-2.128,0.731-2.222,2.13c-0.016,0.231-0.022,0.464-0.023,0.696
		c-0.011,3.829-0.031,7.657-0.023,11.485c0.002,0.944,0.029,1.898,0.167,2.829c0.154,1.035,0.772,1.469,1.824,1.469
		c0.716,0,1.431,0.001,2.147,0.001c1.262,0,1.827-0.476,2.03-1.733c0.046-0.285,0.058-0.578,0.058-0.867
		C71.888,16.999,71.886,14.775,71.886,12.552z"/>
	<path d="M48.291,14.247c2.297,3.571,4.551,7.077,6.859,10.665c-0.285,0.016-0.468,0.034-0.651,0.034
		c-2.844,0.002-5.689-0.01-8.533,0.013c-0.455,0.004-0.682-0.151-0.897-0.538c-1.609-2.889-3.242-5.765-4.869-8.644
		c-0.555-0.981-0.557-0.98-1.788-0.798c0,3.286,0,6.583,0,9.927c-0.25,0.016-0.436,0.038-0.621,0.039
		c-2.554,0.002-5.108,0.003-7.662,0.001c-1.001-0.001-1.378-0.365-1.379-1.352c-0.003-7.372-0.003-14.744-0.001-22.116
		c0-0.886,0.371-1.328,1.178-1.328c5.185-0.002,10.372-0.048,15.556,0.043c3.348,0.059,6.375,2.49,7.2,5.533
		c0.852,3.145-0.607,6.412-3.617,8.095C48.831,13.951,48.597,14.078,48.291,14.247z M38.433,12.542c0.93,0,1.835-0.038,2.735,0.009
		c1.174,0.062,1.983-0.477,2.478-1.472c1.22-2.448,1.199-4.918-0.047-7.35c-0.341-0.665-0.869-1.266-1.662-1.319
		c-1.149-0.078-2.308-0.02-3.504-0.02"/>
	<path d="M123.225,7.542c0.234-0.251,0.372-0.395,0.505-0.544c1.954-2.171,3.902-4.347,5.869-6.506
		c0.16-0.175,0.444-0.335,0.672-0.336c2.941-0.022,5.882-0.013,8.823-0.011c0.094,0,0.189,0.017,0.441,0.041
		c-3.375,3.585-6.676,7.09-10,10.621c3.531,4.687,7.042,9.347,10.603,14.073c-0.198,0.028-0.318,0.061-0.439,0.061
		c-3.154,0.004-6.308,0.014-9.462-0.01c-0.231-0.002-0.543-0.192-0.677-0.39c-1.685-2.479-3.345-4.975-5.012-7.467
		c-0.115-0.171-0.239-0.336-0.36-0.506c-0.715,0.505-1.051,1.084-1.017,1.97c0.072,1.893,0.022,3.792,0.023,5.688
		c0,0.209,0,0.419,0,0.687c-0.253,0.014-0.458,0.034-0.663,0.034c-2.322,0.002-4.644,0.004-6.966,0
		c-0.965-0.001-1.336-0.372-1.336-1.328c-0.001-7.353-0.001-14.705,0-22.058c0-1.048,0.35-1.414,1.378-1.417
		c2.341-0.006,4.683,0.011,7.024-0.013c0.478-0.005,0.577,0.158,0.572,0.601c-0.022,2.031-0.01,4.063-0.008,6.095
		C123.195,7.012,123.21,7.197,123.225,7.542z"/>
	<path d="M176.4,24.948c-0.882,0-1.672,0-2.463,0c-1.896,0-3.793,0.003-5.69-0.002c-0.957-0.002-1.297-0.344-1.297-1.287
		c-0.001-3,0.007-5.999-0.011-8.999c-0.002-0.331-0.085-0.695-0.238-0.987c-2.245-4.281-4.508-8.553-6.765-12.827
		c-0.096-0.182-0.178-0.372-0.296-0.621c0.233-0.017,0.398-0.04,0.563-0.04c3.154-0.002,6.309,0.007,9.463-0.011
		c0.424-0.002,0.656,0.122,0.849,0.507c1.204,2.404,2.432,4.795,3.654,7.19c0.086,0.169,0.182,0.333,0.327,0.595
		c0.563-1.073,1.09-2.071,1.611-3.071c0.821-1.578,1.645-3.155,2.449-4.742c0.168-0.331,0.354-0.487,0.75-0.479
		c1.335,0.026,2.67,0.009,4.006,0.01c0.108,0,0.216,0.019,0.414,0.039c-0.643,1.217-1.252,2.373-1.863,3.528
		c-1.755,3.316-3.516,6.628-5.257,9.951c-0.136,0.26-0.191,0.589-0.193,0.887c-0.015,3.193-0.011,6.386-0.013,9.579
		C176.399,24.398,176.4,24.627,176.4,24.948z"/>
	<path d="M152.672,0.215c0,5.826,0,11.624,0,17.488c2.82,0,5.594,0,8.413,0c0,2.43,0,4.795,0,7.195
		c-0.186,0.01-0.355,0.026-0.524,0.026c-5.186,0.001-10.372,0.001-15.557,0c-0.999,0-1.302-0.305-1.302-1.325
		C143.7,16.188,143.7,8.777,143.7,1.366c0-0.824,0.308-1.211,1.061-1.216c2.554-0.016,5.108-0.003,7.662,0
		C152.479,0.151,152.533,0.178,152.672,0.215z"/>
</g>
</svg>
