<?xml version="1.0" encoding="utf-8"?>
<!-- Generator: Adobe Illustrator 17.0.0, SVG Export Plug-In . SVG Version: 6.00 Build 0)  -->
<!DOCTYPE svg PUBLIC "-//W3C//DTD SVG 1.1//EN" "http://www.w3.org/Graphics/SVG/1.1/DTD/svg11.dtd">
<svg version="1.1" id="Ebene_1" xmlns="http://www.w3.org/2000/svg" xmlns:xlink="http://www.w3.org/1999/xlink" x="0px" y="0px"
	 width="145.813px" height="26px" viewBox="0 0 145.813 26" enable-background="new 0 0 145.813 26" xml:space="preserve">
<path d="M0,0.8h8.895c6.72,0,12.255,5.279,12.255,12.062s-5.579,12.06-12.255,12.06H0V0.8z M6.27,19.612h1.409
	c3.744,0,6.944-2.049,6.944-6.751c0-4.318-2.847-6.751-6.878-6.751h-1.46L6.27,19.612z"/>
<path d="M29.292,6.112v4.031h7.07v5.309h-7.07v4.16h7.445v5.311H23.023V0.8h13.714v5.311H29.292z"/>
<path d="M90.614,10.109V0.8h6.27v24.122h-6.27v-9.887h-9.055v9.885h-6.27V0.8h6.27v9.308H90.614z"/>
<path d="M125.495,12.408c0,7.807-5.596,13.308-13.342,13.308s-13.34-5.496-13.34-13.308C98.813,5.109,105.212,0,112.156,0
	C119.099,0,125.495,5.109,125.495,12.408z M105.346,12.444c0,4.158,3.07,7.199,6.812,7.199s6.812-3.039,6.812-7.199
	c0-3.326-3.073-6.362-6.812-6.362S105.346,9.119,105.346,12.444z"/>
<path d="M127.456,0.8h9.598c5.182,0,8.759,2.399,8.759,7.934c0,5.695-3.07,8.189-8.542,8.189h-3.552v7.999h-6.262V0.8z
	 M133.726,11.87h1.058c2.272,0,4.511,0,4.511-2.944c0-3.039-2.08-3.07-4.511-3.07h-1.056L133.726,11.87z"/>
<path d="M45.926,6.102v4.034h7.442l-2.19,5.314h-5.253v9.476h-6.27V0.788h17.588l-2.19,5.314H45.926z"/>
<path d="M66.974,10.201l-1.601-0.487c-1.088-0.353-2.783-0.895-2.783-2.304c0-1.343,1.535-2.014,2.676-2.014
	c0.641,0.003,1.277,0.11,1.883,0.316l0,0l2.893,1.017l1.905-4.598l0,0c-2.319-1.254-4.906-1.934-7.542-1.983
	c-1.211-0.01-2.412,0.215-3.537,0.662l-4.314,10.367c0.925,2.27,3.107,3.053,6.036,3.893c1.343,0.384,3.808,0.993,3.808,2.752
	c0,1.703-1.567,2.433-3.039,2.433c-1.249-0.027-2.469-0.383-3.535-1.034l0,0l-2.163-1.216l-0.457-0.26l-2.063,5l-0.036,0.071l0,0
	v0.017h0.015c2.476,1.756,5.429,2.712,8.464,2.742c2.433,0,4.958-0.671,6.846-2.272c1.888-1.601,2.496-4.109,2.496-6.513
	C72.925,12.895,70.333,11.191,66.974,10.201z"/>
</svg>
