<?xml version="1.0" encoding="utf-8"?>
<!-- Generator: Adobe Illustrator 17.0.0, SVG Export Plug-In . SVG Version: 6.00 Build 0)  -->
<!DOCTYPE svg PUBLIC "-//W3C//DTD SVG 1.1//EN" "http://www.w3.org/Graphics/SVG/1.1/DTD/svg11.dtd">
<svg version="1.1" id="Ebene_1" xmlns="http://www.w3.org/2000/svg" xmlns:xlink="http://www.w3.org/1999/xlink" x="0px" y="0px"
	 width="97.333px" height="32px" viewBox="0 0 97.333 32" enable-background="new 0 0 97.333 32" xml:space="preserve">
<title>74D82C17-724C-4059-90FB-55F0241CA690</title>
<path d="M43.552,15.639v16.27h-9.848V16.703c0-1.733-0.827-2.836-2.127-2.836c-0.867,0-1.576,0.197-2.167,0.551v15.955l1.891,1.142
	v0.394H17.749v-0.394l1.812-1.103V4.885L17.828,3.9V3.506L29.016,0h0.394v12.685c2.6-2.048,5.357-3.112,7.76-3.112
	C40.795,9.573,43.552,11.976,43.552,15.639z M71.456,15.639c0-3.664-2.758-6.067-6.382-6.067c-2.403,0-5.16,1.064-7.761,3.112V0
	H56.92L45.732,3.506V3.9l1.733,0.985v27.024h9.848V14.418c0.591-0.355,1.3-0.551,2.167-0.551c1.3,0,2.127,1.103,2.127,2.836v13.709
	l-1.812,1.103v0.393h13.551v-0.394l-1.891-1.142V15.639z M90.442,9.967v0.394l2.245,1.103l-4.491,9.848l-5.042-9.848l1.733-1.103
	V9.967H72.106L82.76,31.909h2.876l9.336-20.445l2.206-1.103V9.967L90.442,9.967L90.442,9.967z M5.752,11.955
	C2.575,11.955,0,14.53,0,17.707s2.575,5.752,5.752,5.752s5.752-2.575,5.752-5.752C11.505,14.531,8.929,11.955,5.752,11.955z"/>
</svg>
