<?xml version="1.0" encoding="utf-8"?>
<!-- Generator: Adobe Illustrator 17.0.0, SVG Export Plug-In . SVG Version: 6.00 Build 0)  -->
<!DOCTYPE svg PUBLIC "-//W3C//DTD SVG 1.1//EN" "http://www.w3.org/Graphics/SVG/1.1/DTD/svg11.dtd">
<svg version="1.1" id="Ebene_1" xmlns="http://www.w3.org/2000/svg" xmlns:xlink="http://www.w3.org/1999/xlink" x="0px" y="0px"
	 width="165.907px" height="25.621px" viewBox="0 0 165.907 25.621" enable-background="new 0 0 165.907 25.621"
	 xml:space="preserve">
<g>
	<g>
		<path d="M15.349,4.838h1.25v10.188c0,1.629-0.581,3.024-1.742,4.185c-1.162,1.061-2.563,1.591-4.204,1.591
			c-1.641,0-3.018-0.53-4.128-1.591l0.833-0.89c0.921,0.922,2.02,1.382,3.295,1.382c1.275,0,2.38-0.454,3.314-1.363
			c0.921-0.921,1.382-2.027,1.382-3.314V4.838z"/>
		<path d="M18.095,4.838h2.064l8.541,14.771V4.838h1.25v15.907h-2.064L19.344,5.975v14.771h-1.25V4.838z"/>
		<path d="M35.157,4.63c1.161,0,2.127,0.423,2.897,1.269l-0.89,0.909c-0.53-0.619-1.2-0.928-2.007-0.928
			c-0.745,0-1.37,0.265-1.875,0.795c-0.518,0.518-0.776,1.136-0.776,1.856c0,1.035,0.353,1.755,1.06,2.159
			c0.328,0.177,0.691,0.36,1.089,0.549c0.398,0.189,0.817,0.373,1.259,0.549c0.821,0.328,1.597,0.795,2.329,1.402
			c0.72,0.594,1.08,1.628,1.08,3.106c0,1.288-0.461,2.386-1.382,3.295c-0.922,0.808-2.014,1.212-3.276,1.212
			c-1.288,0-2.393-0.404-3.314-1.212l0.909-0.89c0.669,0.669,1.471,1.003,2.405,1.003c0.934,0,1.736-0.334,2.405-1.003
			c0.669-0.669,1.004-1.471,1.004-2.405c0-1.212-0.36-2.045-1.08-2.5c-0.707-0.455-1.49-0.846-2.348-1.174
			c-0.821-0.328-1.604-0.757-2.348-1.288c-0.707-0.53-1.06-1.464-1.06-2.803c0-1.06,0.385-1.975,1.155-2.746
			C33.162,5.015,34.084,4.63,35.157,4.63z"/>
	</g>
	<g>
		<path d="M59.178,4.838h1.25v10.188c0,1.629-0.581,3.024-1.742,4.185c-1.162,1.061-2.563,1.591-4.204,1.591
			c-1.641,0-3.018-0.53-4.128-1.591l0.833-0.89c0.921,0.922,2.02,1.382,3.295,1.382c1.275,0,2.38-0.454,3.314-1.363
			c0.921-0.921,1.382-2.027,1.382-3.314V4.838z"/>
		<path d="M72.415,8.891v6.761c0,1.452-0.524,2.702-1.572,3.75c-1.048,0.935-2.291,1.402-3.731,1.402
			c-1.452,0-2.702-0.467-3.749-1.402c-1.035-1.035-1.553-2.285-1.553-3.75V8.891h1.269v6.761c0,1.099,0.391,2.058,1.174,2.879
			c0.82,0.783,1.773,1.174,2.859,1.174c1.111,0,2.058-0.398,2.841-1.193c0.795-0.795,1.193-1.748,1.193-2.86V8.891H72.415z"/>
		<path d="M81.94,20.746h-1.25v-8.01c0-0.77-0.272-1.427-0.814-1.97c-0.555-0.555-1.212-0.833-1.969-0.833
			c-0.77,0-1.433,0.278-1.988,0.833c-0.556,0.556-0.821,1.212-0.795,1.97v8.01h-1.25v-8.01c0-1.086,0.391-2.039,1.174-2.86
			c0.77-0.808,1.723-1.212,2.86-1.212c0.72,0,1.376,0.17,1.969,0.511c0.593,0.341,1.073,0.795,1.439,1.363
			c0.353-0.568,0.83-1.023,1.43-1.363c0.599-0.341,1.259-0.511,1.979-0.511c1.111,0,2.064,0.404,2.859,1.212
			c0.796,0.795,1.187,1.749,1.174,2.86v8.01h-1.269V12.66c-0.026-0.757-0.303-1.395-0.833-1.913
			c-0.53-0.542-1.174-0.814-1.932-0.814c-0.757,0-1.408,0.271-1.951,0.814c-0.53,0.518-0.808,1.156-0.833,1.913V20.746z"/>
		<path d="M100.896,13.966v1.685c0,1.452-0.524,2.702-1.572,3.75c-1.048,0.935-2.291,1.402-3.731,1.402
			c-0.833,0-1.6-0.161-2.301-0.483c-0.701-0.322-1.297-0.792-1.789-1.411v5.511h-1.25V14.175h0.038v-0.209
			c0-1.452,0.517-2.695,1.553-3.731c1.048-1.048,2.298-1.572,3.75-1.572s2.695,0.518,3.731,1.553
			C100.372,11.265,100.896,12.514,100.896,13.966z M99.646,13.966c0-1.11-0.398-2.057-1.193-2.84
			c-0.795-0.795-1.749-1.193-2.86-1.193c-1.111,0-2.064,0.398-2.86,1.193c-0.783,0.783-1.174,1.73-1.174,2.84v1.685
			c0,1.099,0.391,2.058,1.174,2.879c0.821,0.783,1.774,1.174,2.86,1.174c1.111,0,2.064-0.398,2.86-1.193s1.193-1.748,1.193-2.86
			V13.966z"/>
		<path d="M112.429,20.746h-1.269v-6.78c0-1.11-0.398-2.057-1.193-2.84c-0.783-0.795-1.73-1.193-2.84-1.193
			c-1.111,0-2.064,0.398-2.86,1.193c-0.783,0.783-1.174,1.73-1.174,2.84v6.78h-1.269v-6.78c0-1.452,0.517-2.695,1.553-3.731
			c1.048-1.048,2.298-1.572,3.75-1.572c1.464,0,2.714,0.518,3.75,1.553c1.035,1.035,1.553,2.285,1.553,3.75V20.746z"/>
		<path d="M113.527,19.401l1.023-0.738c0.353,0.492,0.839,0.789,1.458,0.89c0.631,0.113,1.206-0.013,1.723-0.379
			c0.531-0.366,0.846-0.865,0.947-1.496c0.152-0.921-0.026-1.578-0.53-1.97c-0.253-0.202-0.521-0.394-0.805-0.577
			c-0.284-0.183-0.584-0.357-0.9-0.521c-0.316-0.177-0.612-0.363-0.89-0.559c-0.278-0.196-0.537-0.413-0.776-0.653
			c-0.48-0.48-0.631-1.25-0.455-2.31c0.126-0.808,0.517-1.446,1.174-1.913c0.656-0.467,1.395-0.637,2.216-0.511
			c0.845,0.177,1.502,0.6,1.97,1.269l-1.023,0.72c-0.291-0.404-0.676-0.65-1.155-0.739c-0.467-0.076-0.893,0.019-1.278,0.284
			c-0.385,0.265-0.616,0.631-0.691,1.098c-0.114,0.77,0.082,1.332,0.587,1.685c0.505,0.341,1.073,0.682,1.704,1.023
			c0.644,0.354,1.199,0.802,1.667,1.345c0.48,0.556,0.625,1.408,0.435,2.557c-0.177,0.985-0.663,1.755-1.458,2.31
			c-0.795,0.404-1.679,0.58-2.651,0.53C114.884,20.645,114.12,20.196,113.527,19.401z"/>
		<path d="M131.972,13.966v6.78h-1.269v-6.78c0-1.11-0.398-2.057-1.193-2.84c-0.783-0.795-1.73-1.193-2.841-1.193
			s-2.064,0.398-2.859,1.193c-0.783,0.783-1.174,1.73-1.174,2.84v6.78h-1.269v-6.571V4.838h1.269v5.833
			c0.48-0.606,1.07-1.092,1.771-1.458c0.701-0.366,1.455-0.549,2.263-0.549c1.464,0,2.714,0.518,3.75,1.553
			C131.454,11.252,131.972,12.502,131.972,13.966z"/>
		<path d="M143.826,13.966v1.685c0,1.452-0.524,2.702-1.572,3.75c-1.048,0.935-2.292,1.402-3.731,1.402
			c-1.452,0-2.702-0.467-3.75-1.402c-1.035-1.035-1.553-2.285-1.553-3.75v-1.685c0-1.452,0.517-2.695,1.553-3.731
			c1.048-1.048,2.298-1.572,3.75-1.572c1.464,0,2.714,0.518,3.75,1.553C143.308,11.252,143.826,12.502,143.826,13.966z
			 M142.557,13.966c0-1.11-0.398-2.057-1.193-2.84c-0.783-0.795-1.73-1.193-2.84-1.193c-1.111,0-2.064,0.398-2.86,1.193
			c-0.795,0.783-1.193,1.73-1.193,2.84v1.685c0,1.124,0.398,2.083,1.193,2.879c0.82,0.783,1.774,1.174,2.86,1.174
			c1.11,0,2.057-0.398,2.84-1.193c0.795-0.795,1.193-1.748,1.193-2.86V13.966z"/>
		<path d="M154.147,19.288c-1.048,1.01-2.329,1.515-3.844,1.515c-1.452,0-2.702-0.467-3.75-1.402
			c-1.035-1.035-1.553-2.285-1.553-3.75v-1.685c0-1.452,0.517-2.695,1.553-3.731c1.048-1.048,2.298-1.572,3.75-1.572
			c1.452,0,2.695,0.518,3.731,1.553c1.048,1.023,1.572,2.272,1.572,3.75v1.477h-9.355v0.208c0,1.124,0.398,2.083,1.193,2.879
			c0.82,0.783,1.774,1.174,2.86,1.174c1.149,0,2.133-0.435,2.954-1.306L154.147,19.288z M154.336,14.175v-0.209
			c0-1.11-0.398-2.057-1.193-2.84c-0.783-0.795-1.73-1.193-2.84-1.193c-1.111,0-2.064,0.398-2.86,1.193
			c-0.795,0.783-1.193,1.73-1.193,2.84v0.209H154.336z"/>
		<path d="M165.907,20.746h-8.825h-0.511v-1.345l7.764-9.26h-7.764v-1.25h3.901h4.923h0.512v1.345l-7.764,9.26h7.764V20.746z"/>
	</g>
	
		<rect x="0.565" y="0.956" fill="none" stroke="#000000" stroke-width="0.5027" stroke-miterlimit="10" width="45.076" height="23.962"/>
</g>
</svg>
