<?xml version="1.0" encoding="utf-8"?>
<!-- Generator: Adobe Illustrator 17.0.0, SVG Export Plug-In . SVG Version: 6.00 Build 0)  -->
<!DOCTYPE svg PUBLIC "-//W3C//DTD SVG 1.1//EN" "http://www.w3.org/Graphics/SVG/1.1/DTD/svg11.dtd">
<svg version="1.1" id="Ebene_1" xmlns="http://www.w3.org/2000/svg" xmlns:xlink="http://www.w3.org/1999/xlink" x="0px" y="0px"
	 width="376.983px" height="52.235px" viewBox="0 0 376.983 52.235" enable-background="new 0 0 376.983 52.235"
	 xml:space="preserve">
<g>
	<path d="M24.89-0.537c7.316,3.065,7.308,3.063,5.422,11.392c-0.209,0.925-0.259,1.886-0.403,2.986
		c-2.048-0.865-3.802-2.002-5.682-2.278c-1.605-0.235-4.078-0.027-4.844,0.986c-0.825,1.092-0.653,3.621,0.059,5.03
		c1.043,2.065,2.822,3.827,4.518,5.48c8.324,8.115,5.565,24.787-5.86,28.134c-1.269,0.372-2.528,0.781-3.792,1.172
		c-1.763,0-3.527,0-5.29,0c-3.023-1.008-6.046-2.015-9.069-3.023c0-0.252,0-0.504,0-0.756c0.869-4.034,1.737-8.068,2.593-12.041
		c2.119,1.016,4.219,1.975,6.275,3.02c2.321,1.18,4.933,0.963,5.879-1.163c0.872-1.958,0.824-4.893-0.015-6.897
		c-0.962-2.297-3.125-4.16-4.971-6.005C3.111,18.906,4.47,7.734,10.591,2.918c1.948-1.532,4.478-2.324,6.742-3.455
		C19.851-0.537,22.371-0.537,24.89-0.537z"/>
	<path d="M354.394,52.365c-2.731-1.197-6.683-1.711-7.847-3.787c-1.135-2.025,0.599-5.644,1.033-8.569
		c0.156-1.056,0.193-2.129,0.299-3.367c2.699,1.18,4.951,2.567,7.388,3.084c1.543,0.328,3.885-0.126,4.909-1.17
		c1.013-1.033,1.611-3.642,1.001-4.867c-1.516-3.044-3.689-5.802-5.837-8.484c-7.852-9.801-4.738-21.059,7.027-25.158
		c0.162-0.056,0.23-0.383,0.341-0.584c2.519,0,5.038,0,7.557,0c1.468,0.525,2.986,0.943,4.385,1.612
		c0.907,0.434,2.368,1.278,2.332,1.861c-0.219,3.566-0.796,7.11-1.285,10.909c-2.079-0.972-3.418-1.613-4.77-2.226
		c-2.228-1.011-4.329-1.244-5.979,1.054c-1.65,2.297-0.562,4.258,0.858,6.077c1.464,1.875,3.029,3.677,4.631,5.437
		c5.922,6.508,5.215,18.851-1.8,24.155c-2.544,1.923-5.943,2.716-8.952,4.024C357.921,52.365,356.158,52.365,354.394,52.365z"/>
	<path d="M155.376,49.923c2.403-16.361,4.806-32.723,7.248-49.347c7.351,0,14.699,0,22.64,0c-0.583,3.96-1.144,7.778-1.726,11.729
		c-1.318,0-2.188-0.005-3.059,0.001c-6.643,0.045-6.643,0.046-8.021,7.019c2.924,0,5.764,0,9.025,0
		c-0.424,3.453-0.502,6.475-1.31,9.287c-0.262,0.911-2.418,1.755-3.739,1.804c-6.394,0.238-6.596,0.356-6.305,7.604
		c1.534,0,3.102,0,4.671,0c1.609,0,3.218,0,5.022,0c-0.618,4.344-1.177,8.273-1.825,12.827c-0.996,0-2.18,0-3.364,0
		c-9.945,0-19.892-0.096-29.835,0.059c-2.968,0.046-4.125-0.686-4.386-3.898c-0.488-5.994-1.629-11.935-3.218-17.965
		c-0.655,4.055-1.31,8.11-1.965,12.166c-0.237,1.469-0.458,2.941-0.712,4.407c-0.906,5.233-0.911,5.232-6.339,5.232
		c-6.529,0-13.057,0-20.012,0c0-2.466,0-4.777,0-6.996c-7.635-1.537-7.7-1.492-10.264,6.829c-11.888,0-23.814,0-35.897,0
		c1.318-9.394,2.588-18.606,3.909-27.811c0.9-6.271,2.038-12.514,2.738-18.806c0.314-2.819,1.239-3.899,4.156-3.814
		c6.366,0.185,12.74,0.057,19.228,0.057c-0.607,4.174-1.14,7.843-1.722,11.848c-3.17,0-6.396,0-9.887,0
		c-0.458,2.386-0.863,4.494-1.375,7.159c3.31,0,6.133,0,9.222,0c-0.588,3.916-1.099,7.322-1.652,11.006
		c-4.269,0.935-11.925-2.553-9.798,7.564c2.694,0,5.849,0,9.428,0c-0.369,3.851-0.685,7.148-1.002,10.444
		c0.204,0.052,0.408,0.105,0.612,0.157c3.105-8.919,6.211-17.838,9.314-26.758c2.161-6.215,4.421-12.398,6.413-18.666
		c0.64-2.015,1.468-2.907,3.641-2.795c3.14,0.162,6.298,0.121,9.443,0.015c2.173-0.073,3.105,0.585,3.218,2.97
		c0.649,13.649,1.445,27.291,2.254,40.931c0.103,1.729,0.577,3.436,1.364,5.195c2.395-16.215,4.79-32.429,7.215-48.843
		c4.126,0,8.101,0,12.519,0c-0.988,6.8-1.96,13.487-2.932,20.174c0.181,0.109,0.362,0.219,0.543,0.328
		c0.536-0.945,1.123-1.865,1.599-2.839c2.461-5.029,5.009-10.02,7.281-15.133c0.961-2.162,2.198-2.969,4.532-2.806
		c2.879,0.202,5.782,0.048,9.415,0.048c-2.659,4.937-4.694,9.748-7.631,13.925c-4.377,6.225-5.537,12.436-3.078,19.747
		c1.738,5.167,2.407,10.693,3.554,16.059C154.812,49.999,155.094,49.961,155.376,49.923z M108.435,33.34c0-6.05,0-11.761,0-17.472
		c-0.216-0.043-0.432-0.087-0.647-0.13c-1.69,5.791-3.38,11.581-5.137,17.602C104.628,33.34,106.225,33.34,108.435,33.34z"/>
	<path d="M264.636,29.04c1.957-6.873,3.993-13.725,5.853-20.625c2.37-8.79,2.308-8.807,11.991-7.664c0,9.381,0,18.827,0,28.274
		c0.307,0.048,0.615,0.096,0.922,0.144c0.978-3.499,2.019-6.982,2.92-10.5c1.32-5.158,2.713-10.308,3.718-15.53
		c0.4-2.077,1.143-2.802,3.135-2.751c3.138,0.08,6.279,0.021,9.98,0.021c-5.512,17.011-10.908,33.665-16.288,50.269
		c-3.958,0-7.693,0-11.669,0c0-10.065,0-19.963,0-29.861c-0.249-0.05-0.499-0.101-0.748-0.151
		c-2.898,9.967-5.796,19.934-8.734,30.039c-3.734,0-7.484,0-11.553,0c-0.558-15.783-1.114-31.533-1.671-47.283
		c-0.185-0.021-0.37-0.042-0.555-0.062c-0.22,1.071-0.412,2.149-0.665,3.212c-1.508,6.328-1.512,6.327-8.718,6.617
		c-1.832,12.33-3.684,24.791-5.566,37.455c-4.083,0-8.181,0-12.554,0c1.81-12.471,3.601-24.808,5.453-37.564
		c-2.795,0-5.134,0-7.818,0c0.648-4.294,1.235-8.181,1.867-12.367c13.509,0,27.002,0,40.284,0c0,9.533,0,18.892,0,28.251
		C264.36,28.988,264.498,29.014,264.636,29.04z"/>
	<path d="M35.474,0.307c1.96,0,3.214,0.001,4.468,0c7.606-0.006,7.528,0.002,8.39,7.562c0.648,5.681,1.511,11.339,2.329,17
		c0.083,0.578,0.517,1.105,1.137,2.365c1.526-9.29,2.934-17.863,4.381-26.675c3.246,0,6.465,0,10.395,0
		c-2.395,16.685-4.782,33.31-7.193,50.105c-3.819,0-7.556,0-11.658,0c-1.413-8.221-2.835-16.492-4.256-24.764
		c-0.236-0.043-0.472-0.085-0.709-0.128c-0.666,3.756-1.394,7.502-1.981,11.27c-0.593,3.806-0.897,7.664-1.669,11.43
		c-0.191,0.93-1.638,2.153-2.62,2.265c-2.72,0.311-5.5,0.108-8.461,0.108C30.527,33.88,32.982,17.218,35.474,0.307z"/>
	<path d="M331.899,50.844c-0.844-4.516-1.684-8.76-2.421-13.021c-0.707-4.086-1.308-8.19-2.794-12.23
		c-1.094,6.994-2.378,13.965-3.196,20.991c-0.375,3.221-1.36,4.731-4.784,4.312c-2.09-0.256-4.236-0.047-6.641-0.047
		c1.465-9.641,2.903-18.934,4.28-28.236c0.892-6.022,1.863-12.041,2.466-18.095c0.31-3.113,1.384-4.257,4.631-4.187
		c8.405,0.18,8.269,0.045,9.079,8.61c0.538,5.688,1.529,11.334,2.374,16.99c0.059,0.392,0.594,0.712,1.044,1.219
		c1.444-8.934,2.848-17.62,4.286-26.514c3.434,0,6.77,0,10.362,0c-0.861,6.207-1.673,12.217-2.532,18.221
		c-1.144,7.991-2.333,15.975-3.484,23.965c-0.301,2.091-0.354,4.24-0.896,6.261c-0.198,0.737-1.456,1.626-2.281,1.682
		C338.391,50.966,335.368,50.844,331.899,50.844z"/>
	<path d="M206.927,28.861c1.86,7.279,3.657,14.314,5.611,21.965c-4.155,0-7.987,0.19-11.769-0.157
		c-0.778-0.071-1.768-2.079-1.982-3.312c-0.888-5.117-1.515-10.28-3.082-15.452c-0.764,5.388-1.67,10.762-2.221,16.172
		c-0.216,2.117-0.898,2.871-2.969,2.799c-3.129-0.109-6.265-0.028-9.986-0.028c0.604-4.845,1.1-9.454,1.768-14.038
		c1.395-9.581,2.886-19.148,4.322-28.724c0.295-1.968,0.375-3.982,0.854-5.9c0.181-0.726,1.234-1.794,1.848-1.766
		c6.231,0.277,12.473,0.564,18.674,1.212c7.349,0.768,9.017,7.257,8.556,13.853C216.109,21.781,213.365,26.63,206.927,28.861z
		 M198.831,11.067c-0.609,4.147-1.194,8.129-1.798,12.247c5.464-0.78,8.258-3.93,7.522-8.412
		C204.09,12.069,202.634,9.98,198.831,11.067z"/>
	<path d="M296.62,50.709c2.461-16.903,4.873-33.462,7.306-50.171c4.194,0,8.178,0,12.514,0c-2.463,16.817-4.9,33.452-7.349,50.171
		C304.973,50.709,301.225,50.709,296.62,50.709z"/>
</g>
</svg>
